<svg width="92" height="136" viewBox="0 0 92 136" fill="none" xmlns="http://www.w3.org/2000/svg">
<rect width="92" height="136" fill="#F8EFEB"/>
<rect x="1.5" y="1.5" width="89" height="133" rx="7.5" stroke="#1C3150" stroke-width="3"/>
<path d="M48.5 37C48.5 35.6193 47.3807 34.5 46 34.5C44.6193 34.5 43.5 35.6193 43.5 37L48.5 37ZM44.2322 100.768C45.2085 101.744 46.7915 101.744 47.7678 100.768L63.6777 84.8579C64.654 83.8816 64.654 82.2986 63.6777 81.3223C62.7014 80.346 61.1184 80.346 60.1421 81.3223L46 95.4645L31.8579 81.3223C30.8816 80.346 29.2986 80.346 28.3223 81.3223C27.346 82.2986 27.346 83.8816 28.3223 84.8579L44.2322 100.768ZM43.5 37L43.5 99L48.5 99L48.5 37L43.5 37Z" fill="#1C3150"/>
</svg>
